<?xml version="1.0" encoding="utf-8"?>
<!-- Generator: Adobe Illustrator 26.4.0, SVG Export Plug-In . SVG Version: 6.00 Build 0)  -->
<svg version="1.1" id="Calque_1" xmlns="http://www.w3.org/2000/svg" xmlns:xlink="http://www.w3.org/1999/xlink" x="0px" y="0px"
	 viewBox="0 0 100 45" style="enable-background:new 0 0 100 45;" xml:space="preserve">
<style type="text/css">
	.st0{fill:#FFFFFF;}
</style>
<path class="st0" d="M0.8,8.3h-0.9v17.8h3.9V8C2.9,8.2,1.8,8.3,0.8,8.3z M13.8,20.4c0,0.5-0.1,1-0.2,1.5c-0.4,1.6-1.2,2.9-2.7,3.7
	c-1.2,0.6-2.5,0.7-3.7,0.5c-0.3-0.1-0.7-0.2-1-0.3c3.2,0.5,3.1-2.9,3.1-3.5v-3.9c0-0.6,0.1-4-3.1-3.5c0.3-0.1,0.7-0.2,1-0.3
	c1.3-0.2,2.6-0.2,3.7,0.5c1.5,0.8,2.3,2.1,2.7,3.7c0.1,0.5,0.2,1,0.2,1.5C13.8,20.1,13.8,20.4,13.8,20.4z M35.3,8.3h-0.9v17.8h3.9V8
	C37.4,8.2,36.3,8.3,35.3,8.3z M40.5,25.6c0.4,0,0.8,0,1.2,0c1.8-0.1,1.9-2.5,1.9-3.1c0.1-1.4,0.1-2.9,0.1-4.3c0-0.6,0.1-3.9-3-3.4
	c0.3-0.1,0.7-0.2,1-0.3c1.3-0.2,2.5-0.2,3.6,0.5c1.5,0.8,2.3,2,2.6,3.6c0.4,1.8,0.2,3.4-0.8,5c-0.9,1.5-2.2,2.3-3.9,2.5
	c-0.8,0.1-1.7,0-2.5-0.3C40.7,25.7,40.6,25.7,40.5,25.6z M53.1,8.3h-0.9v17.8h3.9V8C55.2,8.2,54.2,8.3,53.1,8.3z M70.1,14.7h-0.9
	l0,11.4h3.9l0-11.2v-0.6C72.1,14.6,71.1,14.7,70.1,14.7z M58.4,25.7c0.4,0,0.8,0,1.2,0c1.8-0.1,1.9-2.5,1.9-3.1
	c0.1-1.4,0.1-2.9,0.1-4.3c0-0.6,0.1-3.9-3-3.4c0.3-0.1,0.7-0.2,1-0.3c1.3-0.2,2.5-0.2,3.7,0.5c1.5,0.8,2.3,2.1,2.6,3.6
	c0.4,1.8,0.2,3.4-0.8,5c-0.9,1.5-2.2,2.3-3.9,2.5c-0.8,0.1-1.7,0-2.5-0.3C58.6,25.7,58.5,25.7,58.4,25.7z M22.6,26.2
	c-3-0.3-5.5-2.8-5.5-5.9c0-3.1,2.4-5.7,5.5-5.9c0,0-1,0.5-1,2.4v6.8C21.6,23.6,21.5,25.4,22.6,26.2z M83.1,26.1
	c-2.5-0.1-6.4-1.4-6.4-6c0-3,2.4-5.6,5.4-5.8c0,0-1,0.5-1,2.4v6.7C81.1,23.3,81.1,25.6,83.1,26.1z M25.3,26.2c3-0.3,5.5-2.8,5.5-5.9
	c0-3.1-2.4-5.7-5.5-5.9c0,0,1,0.5,1,2.4v6.8C26.3,23.6,26.4,25.4,25.3,26.2z M71.2,8c1.1,0,2.1,0.9,2.1,2.1c0,1.1-0.9,2.1-2.1,2.1
	c-1.1,0-2.1-0.9-2.1-2.1C69.2,8.9,70.1,8,71.2,8z M83.9,14.3c0,0,4.2,0.5,4.7,5.1h-3.9l0-2.8C84.7,16.6,84.7,15,83.9,14.3z
	 M95.8,14.4c-0.3,0.3-0.6,0.6-0.8,1c-0.5,0.9-0.3,2.1,0.4,2.8c0.4,0.4,0.8,0.7,1.3,1c0.8,0.5,1.7,1,2.4,1.8c1.2,1.5,1,3.1-0.6,4.2
	c-0.8,0.5-1.7,0.9-2.7,1.1c0.2-0.1,0.4-0.3,0.6-0.5c0.6-0.6,0.6-1.4,0.1-2.1c-0.4-0.6-1.1-1-1.7-1.4c-0.8-0.5-1.7-1-2.4-1.7
	c-1.2-1.2-1.1-3.1-0.2-4.4c0.8-1,1.8-1.4,2.9-1.7C95.4,14.4,95.6,14.4,95.8,14.4z M92.2,23c0.7,0,1.3,0.6,1.3,1.3
	c0,0.7-0.6,1.3-1.3,1.3c-0.7,0-1.3-0.6-1.3-1.3C90.9,23.5,91.5,23,92.2,23z M98.7,15c0.7,0,1.3,0.6,1.3,1.3c0,0.7-0.6,1.3-1.3,1.3
	c-0.7,0-1.3-0.6-1.3-1.3C97.5,15.6,98,15,98.7,15z M39.7,32.2l-1.5,0V37H39v-2.1h0.9c0,0,1.7,0.1,1.7-1.4
	C41.5,32.1,39.7,32.2,39.7,32.2z M39.8,34.4H39v-1.6h0.8c0,0,1.1,0,1.1,0.8C40.9,34.4,39.8,34.4,39.8,34.4z M45.3,32.2h-0.6L42.6,37
	h0.8l0.5-1.2H46l0.5,1.2h0.7L45.3,32.2z M44.1,35.2l0.9-2.2l0.8,2.2H44.1z M52.6,35.8c0,0.4,0.1,0.9,0.3,1.3H52c0,0-0.2-0.7-0.2-1.4
	c-0.1-0.8-0.6-0.8-0.6-0.8h-1.3V37h-0.7v-4.8h2c1,0,1.3,0.6,1.4,0.9c0.1,0.3,0.1,0.6,0,0.9c-0.1,0.3-0.3,0.5-0.6,0.7
	C52,34.6,52.5,34.7,52.6,35.8z M51.2,32.8h-1.4v1.4h1.3c0.4,0,0.7-0.3,0.7-0.6c0,0,0,0,0-0.1C52,33,51.5,32.8,51.2,32.8z M55.1,32.2
	h0.7V37h-0.7V32.2z M58,35.6l0.7,0c0,0.9,1,0.8,1,0.8c0.6,0,0.9-0.2,1.1-0.4c0.1-0.2,0.1-0.5,0-0.7c-0.2-0.3-0.7-0.4-1.1-0.5
	c-0.3-0.1-0.6-0.2-0.9-0.3c-0.2-0.1-0.4-0.2-0.5-0.4c-0.1-0.2-0.2-0.4-0.2-0.6c0-0.2,0.1-0.5,0.2-0.7c0.1-0.2,0.4-0.4,0.6-0.5
	c0.3-0.1,0.6-0.2,0.9-0.2c0.3,0,0.6,0,0.9,0.2c0.4,0.2,0.7,0.6,0.7,1.1h-0.7c0-0.5-0.6-0.7-0.9-0.7c-0.3,0-0.6,0.1-0.8,0.2
	c-0.2,0.1-0.3,0.3-0.3,0.5c0,0.2,0.1,0.3,0.2,0.4c0.1,0.1,0.4,0.2,0.9,0.3c0.4,0.1,0.7,0.2,1,0.3c0.2,0.1,0.4,0.3,0.6,0.5
	c0.1,0.2,0.2,0.4,0.2,0.7c0,0.2-0.1,0.5-0.2,0.7c-0.2,0.2-0.4,0.4-0.6,0.5C60.6,37,60.3,37,60,37c-0.4,0-0.7,0-1.1-0.1
	c-0.3-0.1-0.5-0.3-0.7-0.5C58.1,36.1,58,35.8,58,35.6z"/>
</svg>
