<?xml version="1.0" encoding="utf-8"?>
<!-- Generator: Adobe Illustrator 26.4.0, SVG Export Plug-In . SVG Version: 6.00 Build 0)  -->
<svg version="1.1" id="Calque_1" xmlns="http://www.w3.org/2000/svg" xmlns:xlink="http://www.w3.org/1999/xlink" x="0px" y="0px"
	 viewBox="0 0 100 45" style="enable-background:new 0 0 100 45;" xml:space="preserve">
<style type="text/css">
	.st0{fill:#FFFFFF;}
	.st1{fill:url(#SVGID_1_);}
	.st2{fill:url(#SVGID_00000146489917960844356590000007647937804059749822_);}
</style>
<g>
	<path class="st0" d="M45.7,32.5V14.6l-3.2,0.9v4.8c-1-1.1-2.5-1.7-4-1.7c-0.9,0-1.8,0.2-2.6,0.6c-2.6,1.1-4.2,3.8-4.2,6.6
		c-0.1,1.8,0.7,3.6,1.9,5c1.3,1.3,3,2.1,4.8,2.1c1.7,0.1,3.2-0.7,4.2-2.1h0.1v1.7H45.7L45.7,32.5z M42.8,25.8L42.8,25.8
		c0.1,1.5-0.6,3-1.8,3.8c-1.3,0.8-2.9,0.8-4.2-0.1c-1.3-0.8-2-2.3-1.8-3.8c-0.1-1.5,0.7-2.8,1.9-3.6c1.3-0.7,2.8-0.7,4,0.1
		C42.2,23,43,24.4,42.8,25.8L42.8,25.8L42.8,25.8L42.8,25.8z M61.3,25.7c0-1.8-0.7-3.6-2-5c-1.3-1.3-3-2-4.9-2c-1.8,0-3.7,0.7-5,2.1
		c-1.3,1.4-2,3.2-2,5.1c-0.1,3.2,2,6.1,5.2,6.9c3.1,0.8,6.3-0.7,7.8-3.6h-3.6c-0.7,0.5-1.5,0.8-2.3,0.8c-1.3,0-2.5-0.7-3.2-1.8
		c-0.2-0.3-0.4-0.6-0.5-0.9h10.2C61.3,26.8,61.3,26.2,61.3,25.7L61.3,25.7L61.3,25.7L61.3,25.7z M58.1,24.7h-7.3
		c0.3-1.8,1.9-3.2,3.8-3.1C56.3,21.5,57.9,22.8,58.1,24.7L58.1,24.7L58.1,24.7z M77.2,32.5V19.1h-2.9v1.7h-0.1
		c-0.1-0.2-0.3-0.4-0.5-0.5c-1.1-1-2.4-1.6-3.9-1.6c-3.9,0-6.6,3.2-6.6,7.1c0,3.8,2.4,7.2,6.4,7.2c1.8-0.1,3.4-0.8,4.6-2.1v1.7
		L77.2,32.5L77.2,32.5L77.2,32.5z M74.2,25.8L74.2,25.8c0,2.3-1.5,4.2-3.9,4.2c-1.1,0-2.1-0.5-2.8-1.2c-0.7-0.8-1.1-1.8-1.1-2.9
		c-0.1-1.1,0.3-2.2,1.1-3c0.7-0.8,1.8-1.3,2.8-1.3c1.1,0,2.1,0.5,2.8,1.3C73.9,23.7,74.3,24.7,74.2,25.8L74.2,25.8L74.2,25.8z
		 M84.2,32.5V14.6L81,15.6v17C81,32.5,84.2,32.5,84.2,32.5z M99.5,19.1H96l-3.2,8.6l-3-8.6h-3.6L91,31.3L88.6,37H92L99.5,19.1
		L99.5,19.1z"/>
	
		<linearGradient id="SVGID_1_" gradientUnits="userSpaceOnUse" x1="-300.0864" y1="-37.7849" x2="-300.7158" y2="-37.7849" gradientTransform="matrix(42.1292 0 0 42.748 12673.7061 1637.3312)">
		<stop  offset="0" style="stop-color:#FFFFFF;stop-opacity:0.1"/>
		<stop  offset="1" style="stop-color:#FFFFFF"/>
	</linearGradient>
	<path class="st1" d="M3.9,28L22,9.7c1.1-1.1,2.5-1.7,4-1.7c1.5,0,3,0.6,4,1.7c2.2,2.2,2.2,5.9,0,8.2L12,36.2L3.9,28L3.9,28z"/>
	
		<linearGradient id="SVGID_00000043443429351634641070000017631205262895637180_" gradientUnits="userSpaceOnUse" x1="-299.3412" y1="-36.3079" x2="-298.6806" y2="-36.3079" gradientTransform="matrix(35.5742 0 0 30.76 10648.8682 1142.834)">
		<stop  offset="0" style="stop-color:#FFFFFF;stop-opacity:0.1"/>
		<stop  offset="1" style="stop-color:#FFFFFF"/>
	</linearGradient>
	<path style="fill:url(#SVGID_00000043443429351634641070000017631205262895637180_);" d="M12,36.2L1.7,25.7c-2.2-2.2-2.2-5.9,0-8.2
		c1.1-1.1,2.5-1.7,4-1.7s3,0.6,4,1.7l6,6.1c2.3,2.3,4.8,2.5,7.8,0.9L12,36.2L12,36.2z"/>
</g>
</svg>
