<?xml version="1.0" encoding="utf-8"?>
<!-- Generator: Adobe Illustrator 26.4.0, SVG Export Plug-In . SVG Version: 6.00 Build 0)  -->
<svg version="1.1" id="Calque_1" xmlns="http://www.w3.org/2000/svg" xmlns:xlink="http://www.w3.org/1999/xlink" x="0px" y="0px"
	 viewBox="0 0 100 45" style="enable-background:new 0 0 100 45;" xml:space="preserve">
<style type="text/css">
	.st0{fill:#FFFFFF;}
</style>
<g id="Capa_2_1_">
	<g id="Capa_1-2">
		<path class="st0" d="M0.7,30.4H2c0.1,0,0.1,0,0.1-0.2V11.1h8.3c0.1,0,0.1-0.1,0.1-0.1V9.8c0-0.1-0.1-0.1-0.1-0.1H0.6v20.5
			C0.6,30.3,0.6,30.4,0.7,30.4C0.7,30.4,0.7,30.4,0.7,30.4z"/>
		<path class="st0" d="M95.1,35.1H80c-0.1,0-0.1,0.1-0.1,0.1v1.1c0,0.1,0,0.1,0.1,0.1h0h15.1c0.1,0,0.1-0.1,0.1-0.1v0v-1.1
			C95.2,35.1,95.2,35.1,95.1,35.1z"/>
		<path class="st0" d="M41.9,9.7H31.5v20.7H42c0.1,0,0.1,0,0.1-0.1v0v-1.2c0-0.1-0.1-0.1-0.1-0.1H33V11.1H42c0,0,0.1,0,0.1-0.1V9.8
			C42.1,9.7,42,9.7,41.9,9.7z"/>
		<path class="st0" d="M55.1,20.6l-5.5-2.9c-1.2-0.6-1.7-1.7-1.7-3.3c0-1.7,1.1-3.4,4-3.4c2.4,0,3.9,1.3,4.1,3.6
			c0,0.1,0.1,0.1,0.2,0.1l1.3-0.3c0.1,0,0.2-0.1,0.2-0.3c0,0,0,0,0,0c-0.3-2.2-1.6-4.7-5.6-4.7c-1.6,0-3,0.5-4,1.4
			c-1.1,0.9-1.7,2.1-1.7,3.6c0,1.4,0.3,3.5,2.8,4.8l4.6,2.3c1.6,0.9,2.4,2,2.4,3.6c0,2-1.4,4.1-4.3,4.1c-3.8,0-4.2-3-4.2-4.3
			c0-0.1-0.1-0.1-0.1-0.1h-0.8h0h-0.3c0,0,0,0,0,0l0,0c-0.1,0-0.1,0.1-0.1,0.1c0,2.6,1.5,5.7,5.8,5.7c0.9,0,1.8-0.1,2.7-0.5
			c2.2-0.7,3.4-2.5,3.4-4.9c0-0.7-0.2-1.3-0.5-1.9C57,22.1,56.2,21.2,55.1,20.6z"/>
		<path class="st0" d="M88.6,29h-7.1V9.9c0-0.1,0-0.1-0.1-0.1c0,0,0,0,0,0h-1.3c-0.1,0-0.1,0.1-0.1,0.1v0v20.5h8.6
			c0.1,0,0.1,0,0.1-0.1c0,0,0,0,0,0v-1.2C88.8,29,88.7,29,88.6,29z"/>
		<path class="st0" d="M35.8,20.8c0.6,0,0.9-0.3,0.9-0.9s-0.3-0.9-0.9-0.9s-0.9,0.3-0.9,0.9S35.2,20.8,35.8,20.8z"/>
		<path class="st0" d="M5.3,18.9c-0.6,0-0.9,0.3-0.9,0.9s0.3,0.9,0.9,0.9s0.9-0.3,0.9-0.9S5.9,18.9,5.3,18.9z"/>
		<path class="st0" d="M2.1,34.6c0.4,0,0.7,0.2,0.9,0.5l0.1,0.1l0.5-0.4l-0.1-0.1c-0.2-0.2-0.4-0.4-0.6-0.5C2,33.7,1,34.1,0.5,34.9
			c-0.1,0.3-0.2,0.5-0.2,0.8c0,0.2,0.1,0.5,0.1,0.7c0.1,0.2,0.2,0.4,0.4,0.6c0.2,0.2,0.3,0.3,0.6,0.4c0.2,0.1,0.5,0.1,0.7,0.1
			c0.6,0,1.1-0.3,1.4-0.7l0.1-0.1l-0.5-0.4L3,36.5c-0.4,0.5-1.1,0.6-1.6,0.2c-0.5-0.4-0.6-1.1-0.2-1.6C1.4,34.8,1.8,34.6,2.1,34.6
			L2.1,34.6z"/>
		<path class="st0" d="M11.8,34c-1,0-1.8,0.8-1.8,1.8c0,1,0.8,1.8,1.8,1.8s1.8-0.8,1.8-1.8C13.6,34.8,12.8,34,11.8,34L11.8,34z
			 M11.8,36.9c-0.6,0-1.1-0.5-1.1-1.1c0-0.6,0.5-1.1,1.1-1.1c0.6,0,1.1,0.5,1.1,1.1l0,0C12.9,36.4,12.4,36.9,11.8,36.9L11.8,36.9
			L11.8,36.9z"/>
		<path class="st0" d="M22.1,35.6c-0.2-0.1-0.4-0.2-0.7-0.2l-0.1,0c-0.2,0-0.3-0.1-0.5-0.2c-0.1-0.1-0.1-0.1-0.1-0.2
			c0-0.1,0.1-0.2,0.2-0.3c0.1,0,0.2-0.1,0.3-0.1c0.3,0,0.5,0.1,0.7,0.3l0.1,0.1l0.4-0.5l-0.1-0.1c-0.3-0.2-0.6-0.4-0.9-0.4
			c-0.1,0-0.2,0-0.3,0c-0.2,0-0.4,0-0.6,0.1c-0.2,0.1-0.3,0.2-0.4,0.3c-0.1,0.2-0.2,0.3-0.2,0.5c0,0.2,0,0.3,0.1,0.5
			c0.1,0.1,0.2,0.3,0.3,0.3c0.3,0.1,0.5,0.2,0.8,0.2c0.2,0,0.3,0.1,0.4,0.1c0.1,0.1,0.2,0.1,0.2,0.3c0,0.2-0.1,0.3-0.3,0.3
			c-0.1,0.1-0.2,0.1-0.3,0.1c-0.1,0-0.1,0-0.2,0l0,0c-0.3-0.1-0.5-0.2-0.7-0.4l-0.1-0.1l-0.4,0.5L20,37c0.3,0.3,0.6,0.4,1,0.5
			c0.1,0,0.2,0,0.3,0c0.2,0,0.4,0,0.6-0.1c0.2-0.1,0.3-0.2,0.4-0.3c0.1-0.2,0.2-0.4,0.2-0.6c0-0.2,0-0.3-0.1-0.5
			C22.4,35.8,22.3,35.7,22.1,35.6z"/>
		<polygon class="st0" points="30.5,35.3 29.6,34.1 29,34.1 29,37.5 29.7,37.5 29.7,35.2 30.5,36.4 31.4,35.2 31.4,37.5 32,37.5 
			32,34.1 31.4,34.1 		"/>
		<polygon class="st0" points="38.5,37.5 40.7,37.5 40.7,36.8 39.1,36.8 39.1,35.8 40.5,35.8 40.5,35.2 39.1,35.2 39.1,34.7 
			40.7,34.7 40.7,34.1 38.5,34.1 		"/>
		<polygon class="st0" points="47.1,34.7 47.9,34.7 47.9,37.5 48.6,37.5 48.6,34.7 49.4,34.7 49.4,34.1 47.1,34.1 		"/>
		<rect x="55.8" y="34.1" class="st0" width="0.6" height="3.4"/>
		<path class="st0" d="M64.6,34.6c0.4,0,0.7,0.2,0.9,0.5l0.1,0.1l0.5-0.4L66,34.7c-0.2-0.2-0.4-0.4-0.6-0.5
			c-0.9-0.4-1.9-0.1-2.4,0.8c-0.1,0.3-0.2,0.5-0.2,0.8c0,0.2,0.1,0.5,0.1,0.7c0.1,0.2,0.2,0.4,0.4,0.6c0.3,0.3,0.8,0.5,1.3,0.5
			c0.6,0,1.1-0.3,1.4-0.7l0.1-0.1l-0.5-0.4l-0.1,0.1c-0.4,0.5-1.1,0.6-1.6,0.2s-0.6-1.1-0.2-1.6C63.9,34.8,64.3,34.6,64.6,34.6
			L64.6,34.6z"/>
		<path class="st0" d="M74.7,35.6c-0.2-0.1-0.4-0.2-0.7-0.2l-0.1,0c-0.2,0-0.3-0.1-0.5-0.2c-0.1-0.1-0.1-0.1-0.1-0.2
			c0-0.1,0.1-0.2,0.2-0.3c0.1,0,0.2-0.1,0.3-0.1c0.3,0,0.5,0.1,0.7,0.3l0.1,0.1l0.4-0.5L75,34.5c-0.3-0.2-0.6-0.4-0.9-0.4
			c-0.1,0-0.2,0-0.3,0c-0.2,0-0.4,0-0.6,0.1c-0.2,0.1-0.3,0.2-0.4,0.3c-0.1,0.2-0.2,0.3-0.2,0.5c0,0.2,0,0.3,0.1,0.5
			c0.1,0.1,0.2,0.3,0.3,0.3c0.3,0.1,0.5,0.2,0.8,0.2c0.2,0,0.3,0.1,0.4,0.1c0.1,0.1,0.2,0.1,0.2,0.3c0,0.2-0.1,0.3-0.3,0.3
			c-0.1,0.1-0.2,0.1-0.3,0.1c-0.1,0-0.1,0-0.2,0l0,0c-0.3-0.1-0.5-0.2-0.7-0.4l-0.1-0.1l-0.4,0.5l0.1,0.1c0.3,0.3,0.6,0.4,1,0.5
			c0.1,0,0.2,0,0.3,0c0.2,0,0.4,0,0.6-0.1c0.2-0.1,0.3-0.2,0.4-0.3c0.1-0.2,0.2-0.4,0.2-0.6c0-0.2,0-0.3-0.1-0.5
			C75,35.8,74.8,35.7,74.7,35.6z"/>
		<path class="st0" d="M63.2,30.4h1.3c0.1,0,0.1,0,0.1-0.2v-9.8h8.5v9.8c0,0.1,0.1,0.1,0.1,0.2h0h1.3c0.1,0,0.1,0,0.1-0.2V9.9
			c0-0.1-0.1-0.1-0.1-0.2h0h-1.3c-0.1,0-0.1,0-0.1,0.2v9.1h-8.5V9.9c0-0.1-0.1-0.1-0.1-0.1h0h-1.3c-0.1,0-0.1,0-0.1,0.2v20.3
			C63.1,30.3,63.1,30.4,63.2,30.4C63.2,30.4,63.2,30.4,63.2,30.4z"/>
		<path class="st0" d="M99.9,9.7h-1.3c-0.1,0-0.2,0-0.3,0.2l-3.9,11h-0.3l0,0l-4.4-11c-0.1-0.2-0.2-0.2-0.3-0.2h-1.3
			c0,0-0.1,0-0.1,0c0,0,0,0.1,0,0.2l5.4,13.3v7c0,0.1,0,0.1,0.1,0.1h0h1.5c0.1,0,0.1,0,0.1-0.1v-6.9L100,9.9c0-0.1,0-0.1,0-0.2
			C100,9.7,99.9,9.7,99.9,9.7z"/>
		<path class="st0" d="M26,30.4l-4.6-8.9l0.2-0.1c2.5-0.7,3.8-2.5,3.8-5.6v-0.6c0-2.5-1.1-5.5-6.5-5.5h-4v20.5c0,0.1,0,0.1,0.1,0.1
			h0h1.3c0.1,0,0.1-0.1,0.1-0.1v-8.6h3.6l4.4,8.7c0,0,0.1,0.1,0.1,0.1L26,30.4C26,30.4,26,30.4,26,30.4z M19,20.2h-2.8v-9.1h2.7
			c3.3,0,4.9,1.3,4.9,4.1v0.6C23.8,19.7,21.5,20.2,19,20.2z"/>
	</g>
</g>
</svg>
