<?xml version="1.0" encoding="utf-8"?>
<!-- Generator: Adobe Illustrator 26.4.0, SVG Export Plug-In . SVG Version: 6.00 Build 0)  -->
<svg version="1.1" id="Calque_1" xmlns="http://www.w3.org/2000/svg" xmlns:xlink="http://www.w3.org/1999/xlink" x="0px" y="0px"
	 viewBox="0 0 100 45" style="enable-background:new 0 0 100 45;" xml:space="preserve">
<style type="text/css">
	.st0{fill:#FFFFFF;}
</style>
<g id="PCp1G8_00000022522313720229101330000002936895046711206545_">
	<g>
		<path class="st0" d="M52.9,23.6c0.4-1.1,0.8-2.2,1.2-3.2c0.4-1.1,0.8-2.2,1.2-3.2c0.3-0.9,1.1-1.5,2.1-1.5c1,0,1.8,0.6,2.2,1.4
			c0.5,1.2,0.9,2.5,1.4,3.7c0.3,0.9,0.7,1.8,1,2.6c0,0,0,0.1,0.1,0.1c0.1-0.3,0.3-0.6,0.4-0.8c0.5-1.1,0.9-2.1,1.4-3.2
			c0.4-0.9,0.8-1.7,1.1-2.6c0.4-1,1.4-1.5,2.5-1.3c1,0.2,1.8,1,1.9,2c0,0.4,0,0.8-0.2,1.1c-1,2.4-1.9,4.8-2.9,7.1
			c-0.7,1.8-1.5,3.7-2.2,5.5c-0.4,0.9-1,1.3-2,1.4c-1,0.1-1.8-0.4-2.2-1.3c-0.3-0.5-0.4-1.1-0.6-1.6c-0.6-1.5-1.1-3-1.7-4.5
			c0-0.1-0.1-0.2-0.1-0.4c-0.1,0.3-0.2,0.6-0.3,0.8c-0.7,1.8-1.3,3.7-2,5.5c-0.3,0.7-1.1,1.3-1.9,1.4c-1.1,0-2-0.5-2.4-1.6
			c-0.7-1.7-1.4-3.4-2.1-5.1c-0.4-0.9-0.7-1.8-1.1-2.6c-0.3-0.8-0.7-1.7-1-2.5c-0.3-0.7-0.6-1.4-0.9-2.1c-0.5-1.2,0.1-2.5,1.3-3
			c1.2-0.5,2.5,0.1,3,1.3c0.9,2.1,1.9,4.3,2.8,6.4C52.9,23.5,52.9,23.6,52.9,23.6z"/>
		<path class="st0" d="M34,21.7c0.3-0.3,0.6-0.5,0.8-0.7c1.8-1.5,3.5-3.1,5.3-4.6c0.4-0.4,0.9-0.6,1.4-0.7c0.5,0,1,0.1,1.5,0.4
			c0.7,0.5,1,1.1,0.9,1.9c-0.1,0.6-0.3,1.2-0.8,1.6c-1.5,1.3-3,2.6-4.5,3.9c-0.1,0.1-0.1,0.1,0,0.2c1.2,1.5,2.5,3,3.7,4.5
			c0.2,0.3,0.5,0.6,0.7,0.9c0.5,0.7,0.7,1.4,0.4,2.3c-0.3,0.8-0.9,1.3-1.8,1.5c-0.9,0.1-1.6-0.1-2.2-0.8c-0.6-0.7-1.2-1.4-1.7-2.1
			c-0.9-1.1-1.7-2.1-2.5-3.2c-0.1-0.1-0.1-0.1-0.2,0c-0.3,0.3-0.6,0.6-0.9,0.9C34,27.7,34,27.8,34,27.9c0,0.9,0,1.8,0,2.7
			c0,1-0.5,1.7-1.3,2.1c-0.9,0.4-1.8,0.3-2.5-0.4c-0.5-0.5-0.8-1-0.8-1.7c0-1.4,0-2.9,0-4.3c0-2.7,0-5.4,0-8.1
			c0-0.9,0.4-1.7,1.2-2.2c0.7-0.4,1.5-0.4,2.2,0c0.8,0.4,1.2,1.1,1.2,2c0,1.2,0,2.4,0,3.5C34,21.6,34,21.6,34,21.7z"/>
		<path class="st0" d="M74.8,29.9c-1.1,0-2.1,0-3.2,0c-0.1,0-0.2,0-0.3,0.2c-0.3,0.6-0.6,1.1-0.9,1.7c-0.4,0.7-1,1.1-1.8,1.1
			c-1.2,0.1-2.2-0.6-2.5-1.8c-0.1-0.5-0.1-0.9,0.2-1.4c1.1-2.3,2.3-4.5,3.4-6.8c1-2,2-4,3-5.9c0.4-0.9,1.2-1.3,2.2-1.2
			c1,0,1.7,0.5,2.1,1.4c1,2.1,2.1,4.1,3.1,6.2c1.1,2.1,2.1,4.3,3.2,6.4c0.5,1.1,0,2.5-1.2,3c-1,0.4-2.1,0.1-2.8-0.7
			c-0.2-0.3-0.3-0.6-0.5-0.9c-0.2-0.4-0.4-0.7-0.6-1.1c0-0.1-0.1-0.1-0.2-0.1C76.9,29.9,75.9,29.9,74.8,29.9z M74.7,23.2
			c-0.4,0.9-0.8,1.9-1.2,2.8c0.8,0,1.6,0,2.5,0C75.5,25.1,75.1,24.1,74.7,23.2z"/>
		<path class="st0" d="M18.5,15.7c-0.1,0.1-0.1,0.2-0.2,0.3c-1.6,2.6-3.1,5.2-4.7,7.8c-0.5,0.8-1,1.6-1.5,2.4
			c-1.3,2.1-2.6,4.2-3.8,6.3c0,0.1-0.1,0.1-0.2,0.1c-2.6,0-5.3,0-7.9,0c0,0,0,0-0.1,0c0.1-0.2,0.2-0.3,0.3-0.5
			c1.4-2.4,2.9-4.8,4.3-7.2c1.3-2.2,2.7-4.4,4-6.6c0.5-0.9,1-1.7,1.6-2.6c0.1-0.1,0.1-0.2,0.2-0.2c2.6,0,5.2,0,7.8,0
			C18.4,15.7,18.4,15.7,18.5,15.7z"/>
		<path class="st0" d="M85.2,28.6c0-0.7,0-1.4,0-2.1c0-0.1,0-0.3-0.1-0.4c-1.1-1.4-2.2-2.9-3.3-4.3c-0.7-0.9-1.3-1.7-2-2.6
			c-0.3-0.4-0.5-0.9-0.4-1.5c0.1-1.3,1.2-2.2,2.4-2.1c0.7,0,1.3,0.3,1.7,0.9c1.3,1.6,2.5,3.3,3.8,4.9c0.1,0.1,0.1,0.1,0.2,0
			c1.2-1.6,2.4-3.1,3.6-4.7c0.3-0.3,0.5-0.7,0.9-0.9c0.8-0.4,1.5-0.4,2.3,0c0.8,0.4,1.1,1.1,1.2,2c0,0.5-0.1,0.9-0.4,1.3
			c-1.7,2.2-3.3,4.4-5,6.6c-0.2,0.3-0.3,0.6-0.3,0.9c0,1.2,0,2.5,0,3.7c0,0.9-0.4,1.7-1.2,2.1c-1.5,0.8-3.3-0.3-3.3-2.1
			C85.2,29.9,85.2,29.2,85.2,28.6z"/>
		<path class="st0" d="M16.7,27.5c0-0.3,0.1-0.6,0.2-0.9c1.7-2.9,3.5-5.7,5.2-8.6c0.4-0.7,0.8-1.4,1.2-2c0.2-0.3,0.5-0.4,0.8-0.2
			c0.3,0.2,0.4,0.5,0.2,0.8c-1.5,2.5-3.1,5.1-4.6,7.6c-0.5,0.8-1,1.6-1.5,2.4c-0.3,0.5-0.3,1,0,1.5c0.8,1.3,1.5,2.5,2.2,3.8
			c0.2,0.3,0.1,0.6-0.1,0.8c-0.2,0.2-0.5,0.2-0.8,0c-0.1-0.1-0.1-0.1-0.1-0.2c-0.9-1.5-1.7-3-2.6-4.5C16.8,28,16.7,27.8,16.7,27.5z"
			/>
		<path class="st0" d="M18.8,27.5c0-0.4,0.2-0.7,0.4-1.1c1-1.6,2-3.3,3-4.9c1-1.6,1.9-3.2,2.9-4.8c0.1-0.2,0.3-0.5,0.4-0.7
			c0.2-0.3,0.5-0.4,0.8-0.2c0.3,0.2,0.4,0.5,0.2,0.8c-0.9,1.5-1.9,3.1-2.8,4.6c-1.1,1.8-2.2,3.6-3.3,5.4c-0.3,0.5-0.3,1,0,1.5
			c0.8,1.3,1.5,2.6,2.2,3.8c0.2,0.3,0.1,0.6-0.1,0.8c-0.2,0.2-0.6,0.2-0.8,0c0,0-0.1-0.1-0.1-0.1c-0.6-1.1-1.2-2.2-1.9-3.2
			c-0.2-0.4-0.5-0.8-0.7-1.3C18.9,28,18.8,27.8,18.8,27.5z"/>
		<path class="st0" d="M14.6,27.7c0-0.4,0.1-0.7,0.3-1c1.1-1.8,2.2-3.7,3.3-5.5c1-1.7,2-3.4,3-5c0.2-0.3,0.5-0.4,0.8-0.3
			c0.3,0.2,0.4,0.5,0.2,0.9c-1.4,2.4-2.9,4.8-4.3,7.2c-0.6,1-1.2,1.9-1.7,2.9c-0.3,0.5-0.3,1,0,1.5c0.8,1.3,1.5,2.5,2.2,3.8
			c0.1,0.2,0.1,0.6-0.1,0.8c-0.2,0.2-0.5,0.2-0.8,0c-0.1,0-0.1-0.1-0.1-0.2c-0.9-1.5-1.7-3-2.6-4.5C14.6,28,14.5,27.8,14.6,27.7z"/>
		<path class="st0" d="M19.6,15.8c0.2,0,0.4,0.1,0.5,0.3c0.1,0.2,0.1,0.4,0,0.6c-0.4,0.6-0.7,1.2-1.1,1.9c-1.2,1.9-2.3,3.8-3.5,5.7
			c-0.5,0.8-1,1.7-1.5,2.5c-0.3,0.5-0.3,1,0,1.5c0.8,1.3,1.5,2.6,2.2,3.8c0.1,0.3,0.1,0.6-0.1,0.8c-0.2,0.2-0.6,0.2-0.8,0
			c-0.1-0.1-0.2-0.2-0.2-0.3c-0.8-1.4-1.7-2.9-2.5-4.3c-0.3-0.5-0.2-1.1,0.1-1.5c1.5-2.5,3-5,4.5-7.5c0.6-1,1.2-2,1.9-3.1
			C19.2,15.9,19.3,15.8,19.6,15.8z"/>
		<path class="st0" d="M46.2,24.2c0,1.3-1,2.3-2.3,2.3c-1.3,0-2.3-1.1-2.3-2.3c0-1.3,1-2.3,2.3-2.3C45.2,21.9,46.2,22.9,46.2,24.2z"
			/>
		<path class="st0" d="M97.9,18.7c-0.9,0-1.6-0.7-1.6-1.6c0-0.9,0.7-1.6,1.6-1.6c0.9,0,1.6,0.7,1.6,1.6C99.4,18,98.7,18.7,97.9,18.7
			z M99.1,17.2c0-0.7-0.6-1.3-1.2-1.3c-0.7,0-1.3,0.5-1.3,1.2c0,0.7,0.5,1.3,1.3,1.3C98.6,18.4,99.1,17.9,99.1,17.2z"/>
		<path class="st0" d="M97.3,17.1c0-0.3,0-0.5,0-0.8c0-0.1,0-0.1,0.1-0.1c0.2,0,0.5,0,0.7,0c0.2,0,0.4,0.1,0.4,0.3
			c0.1,0.2,0.1,0.4-0.1,0.5c0,0-0.1,0.1-0.1,0.1c-0.2,0-0.1,0.1-0.1,0.2c0.1,0.2,0.2,0.3,0.3,0.5c0,0.1,0.1,0.1-0.1,0.1
			c-0.2,0-0.3,0-0.4-0.2c-0.1-0.1-0.2-0.3-0.2-0.4c0-0.1-0.1-0.1-0.2-0.1c-0.1,0-0.1,0.1-0.1,0.2c0,0.2,0,0.3,0,0.5
			c0,0.1-0.1,0.1-0.2,0.1c-0.1,0-0.2,0-0.2-0.1C97.3,17.6,97.3,17.4,97.3,17.1C97.3,17.1,97.3,17.1,97.3,17.1z M97.8,17
			c0.1,0,0.2,0,0.2,0c0.2,0,0.2-0.3,0.1-0.4c-0.1-0.1-0.2-0.1-0.3-0.1c-0.3,0-0.3,0-0.3,0.3C97.6,17,97.6,17,97.8,17z"/>
	</g>
</g>
</svg>
